<?xml version="1.0" encoding="UTF-8" standalone="no"?>
<!DOCTYPE svg PUBLIC "-//W3C//DTD SVG 1.1//EN" "http://www.w3.org/Graphics/SVG/1.1/DTD/svg11.dtd">
<svg width="100%" height="100%" viewBox="0 0 220 230" version="1.1" xmlns="http://www.w3.org/2000/svg" xmlns:xlink="http://www.w3.org/1999/xlink" xml:space="preserve" xmlns:serif="http://www.serif.com/" style="fill-rule:evenodd;clip-rule:evenodd;stroke-linecap:round;stroke-linejoin:round;stroke-miterlimit:1.5;">
    <g transform="matrix(1,0,0,1,-18.1535,-13.3142)">
        <g transform="matrix(0.688417,0,0,0.688417,44.841,58.0449)">
            <path d="M120.309,99.127L140.487,110.777L140.487,134.076L120.309,145.726L100.131,134.076L100.131,110.777L120.309,99.127Z" style="fill:none;stroke:black;stroke-width:7.26px;"/>
        </g>
        <g transform="matrix(0.688417,0,0,0.688417,72.6224,58.0449)">
            <path d="M120.309,99.127L140.487,110.777L140.487,134.076L120.309,145.726L100.131,134.076L100.131,110.777L120.309,99.127Z" style="fill:none;stroke:black;stroke-width:7.26px;"/>
        </g>
        <g transform="matrix(0.556798,-0.404838,0.404838,0.556798,46.0725,154.608)">
            <path d="M120.309,99.127L140.487,110.777L140.487,134.076L120.309,145.726L100.131,134.076L100.131,110.777L120.309,99.127Z" style="fill:none;stroke:black;stroke-width:7.26px;"/>
        </g>
        <g transform="matrix(0.628978,-0.279831,0.279831,0.628978,27.3445,145.152)">
            <path d="M120.309,99.127L140.487,110.777L140.487,134.076L120.309,145.726L100.131,134.076L100.131,110.777L120.309,99.127Z" style="fill:none;stroke:black;stroke-width:7.26px;"/>
        </g>
        <g transform="matrix(0.556755,-0.404898,0.404898,0.556755,-12.3547,193.229)">
            <path d="M120.309,99.127L140.487,110.777L140.487,134.076L120.309,145.726L100.131,134.076L100.131,110.777L120.309,99.127Z" style="fill:none;stroke:black;stroke-width:7.26px;"/>
        </g>
        <g transform="matrix(0.628933,-0.279931,0.279931,0.628933,-31.1091,154.702)">
            <path d="M120.309,99.127L140.487,110.777L140.487,134.076L120.309,145.726L100.131,134.076L100.131,110.777L120.309,99.127Z" style="fill:none;stroke:black;stroke-width:7.26px;"/>
        </g>
        <g transform="matrix(0.673371,-0.143141,0.143141,0.673371,83.37,151.985)">
            <path d="M120.309,99.127L140.487,110.777L140.487,134.076L120.309,145.726L100.131,134.076L100.131,110.777L120.309,99.127Z" style="fill:none;stroke:black;stroke-width:7.26px;"/>
        </g>
        <g transform="matrix(0.6289,-0.280005,0.280005,0.6289,52.8827,67.6959)">
            <path d="M120.309,99.127L140.487,110.777L140.487,134.076L120.309,145.726L100.131,134.076L100.131,110.777L120.309,99.127Z" style="fill:none;stroke:black;stroke-width:7.26px;"/>
        </g>
        <g transform="matrix(0.556945,-0.404636,0.404636,0.556945,83.7916,108.32)">
            <path d="M120.309,99.127L140.487,110.777L140.487,134.076L120.309,145.726L100.131,134.076L100.131,110.777L120.309,99.127Z" style="fill:none;stroke:black;stroke-width:7.26px;"/>
        </g>
        <g transform="matrix(0.628661,-0.280541,0.280541,0.628661,90.3573,113.91)">
            <path d="M120.309,99.127L140.487,110.777L140.487,134.076L120.309,145.726L100.131,134.076L100.131,110.777L120.309,99.127Z" style="fill:none;stroke:black;stroke-width:7.26px;"/>
        </g>
        <g transform="matrix(0.556968,-0.404605,0.404605,0.556968,21.085,76.84)">
            <path d="M120.309,99.127L140.487,110.777L140.487,134.076L120.309,145.726L100.131,134.076L100.131,110.777L120.309,99.127Z" style="fill:none;stroke:black;stroke-width:7.26px;"/>
        </g>
        <g transform="matrix(0.688417,0,0,0.688417,30.9503,34.0596)">
            <path d="M120.309,99.127L140.487,110.777L140.487,134.076L120.309,145.726L100.131,134.076L100.131,110.777L120.309,99.127Z" style="fill:none;stroke:black;stroke-width:7.26px;"/>
        </g>
        <g transform="matrix(0.688417,0,0,0.688417,17.0596,9.96752)">
            <path d="M120.309,99.127L140.487,110.777L140.487,134.076L120.309,145.726L100.131,134.076L100.131,110.777L120.309,99.127Z" style="fill:none;stroke:black;stroke-width:7.26px;"/>
        </g>
        <g transform="matrix(0.6733,-0.143477,0.143477,0.6733,66.6244,-7.15045)">
            <path d="M120.309,99.127L140.487,110.777L140.487,134.076L120.309,145.726L100.131,134.076L100.131,110.777L120.309,99.127Z" style="fill:none;stroke:black;stroke-width:7.26px;"/>
        </g>
        <g transform="matrix(0.628814,-0.280198,0.280198,0.628814,-19.9445,4.77905)">
            <path d="M120.309,99.127L140.487,110.777L140.487,134.076L120.309,145.726L100.131,134.076L100.131,110.777L120.309,99.127Z" style="fill:none;stroke:black;stroke-width:7.26px;"/>
        </g>
        <g transform="matrix(0.557138,-0.404371,0.404371,0.557138,-51.7035,43.1441)">
            <path d="M120.309,99.127L140.487,110.777L140.487,134.076L120.309,145.726L100.131,134.076L100.131,110.777L120.309,99.127Z" style="fill:none;stroke:black;stroke-width:7.26px;"/>
        </g>
        <g transform="matrix(0.6733,-0.143477,0.143477,0.6733,75.1262,-33.6665)">
            <path d="M120.309,99.127L140.487,110.777L140.487,134.076L120.309,145.726L100.131,134.076L100.131,110.777L120.309,99.127Z" style="fill:none;stroke:black;stroke-width:7.26px;"/>
        </g>
        <g transform="matrix(0.688417,0,0,0.688417,30.9503,82.0118)">
            <path d="M120.309,99.127L140.487,110.777L140.487,134.076L120.309,145.726L100.131,134.076L100.131,110.777L120.309,99.127Z" style="fill:none;stroke:black;stroke-width:7.26px;"/>
        </g>
        <g transform="matrix(0.628924,0.27995,-0.27995,0.628924,41.4251,46.1354)">
            <path d="M120.309,99.127L140.487,110.777L140.487,134.076L120.309,145.726L100.131,134.076L100.131,110.777L120.309,99.127Z" style="fill:none;stroke:black;stroke-width:7.26px;"/>
        </g>
        <g transform="matrix(0.460409,0.511802,-0.511802,0.460409,43.1724,33.9996)">
            <path d="M120.309,99.127L140.487,110.777L140.487,134.076L120.309,145.726L100.131,134.076L100.131,110.777L120.309,99.127Z" style="fill:none;stroke:black;stroke-width:7.26px;"/>
        </g>
        <g transform="matrix(0.556662,0.405025,-0.405025,0.556662,65.4303,10.6238)">
            <path d="M120.309,99.127L140.487,110.777L140.487,134.076L120.309,145.726L100.131,134.076L100.131,110.777L120.309,99.127Z" style="fill:none;stroke:black;stroke-width:7.26px;"/>
        </g>
        <g transform="matrix(0.990928,0.572113,-0.572113,0.990928,90.1551,12.0949)">
            <path d="M85.432,48.847L96.664,57.008L92.373,70.212L78.49,70.212L74.199,57.008L85.432,48.847Z" style="fill:none;stroke:black;stroke-width:4.37px;"/>
        </g>
        <g transform="matrix(1.08846,0.352846,-0.352846,1.08846,108.732,46.3111)">
            <path d="M85.432,48.847L96.664,57.008L92.373,70.212L78.49,70.212L74.199,57.008L85.432,48.847Z" style="fill:none;stroke:black;stroke-width:4.37px;"/>
        </g>
        <g transform="matrix(1.0884,-0.353043,0.353043,1.0884,-11.5222,106.303)">
            <path d="M85.432,48.847L96.664,57.008L92.373,70.212L78.49,70.212L74.199,57.008L85.432,48.847Z" style="fill:none;stroke:black;stroke-width:4.37px;"/>
        </g>
        <g transform="matrix(1.1379,0.120133,-0.120133,1.1379,-29.7996,67.5078)">
            <path d="M85.432,48.847L96.664,57.008L92.373,70.212L78.49,70.212L74.199,57.008L85.432,48.847Z" style="fill:none;stroke:black;stroke-width:4.37px;"/>
        </g>
        <g transform="matrix(0.990803,0.572331,-0.572331,0.990803,115.427,89.7018)">
            <path d="M85.432,48.847L96.664,57.008L92.373,70.212L78.49,70.212L74.199,57.008L85.432,48.847Z" style="fill:none;stroke:black;stroke-width:4.37px;"/>
        </g>
        <g transform="matrix(0.464566,1.04567,-1.04567,0.464566,125.202,70.3552)">
            <path d="M85.432,48.847L96.664,57.008L92.373,70.212L78.49,70.212L74.199,57.008L85.432,48.847Z" style="fill:none;stroke:black;stroke-width:4.37px;"/>
        </g>
        <g transform="matrix(1.08851,0.352702,-0.352702,1.08851,12.5718,131.179)">
            <path d="M85.432,48.847L96.664,57.008L92.373,70.212L78.49,70.212L74.199,57.008L85.432,48.847Z" style="fill:none;stroke:black;stroke-width:4.37px;"/>
        </g>
        <g transform="matrix(1.13791,0.120033,-0.120033,1.13791,50.0743,84.5211)">
            <path d="M85.432,48.847L96.664,57.008L92.373,70.212L78.49,70.212L74.199,57.008L85.432,48.847Z" style="fill:none;stroke:black;stroke-width:4.37px;"/>
        </g>
        <g transform="matrix(0.850106,0.76588,-0.76588,0.850106,196.833,20.96)">
            <path d="M85.432,48.847L96.664,57.008L92.373,70.212L78.49,70.212L74.199,57.008L85.432,48.847Z" style="fill:none;stroke:black;stroke-width:4.37px;"/>
        </g>
        <g transform="matrix(0.850039,0.765954,-0.765954,0.850039,61.3801,-44.2291)">
            <path d="M85.432,48.847L96.664,57.008L92.373,70.212L78.49,70.212L74.199,57.008L85.432,48.847Z" style="fill:none;stroke:black;stroke-width:4.37px;"/>
        </g>
        <g transform="matrix(1.13793,-0.119841,0.119841,1.13793,-42.3687,-20.8253)">
            <path d="M85.432,48.847L96.664,57.008L92.373,70.212L78.49,70.212L74.199,57.008L85.432,48.847Z" style="fill:none;stroke:black;stroke-width:4.37px;"/>
        </g>
        <g transform="matrix(1.08827,-0.353436,0.353436,1.08827,43.2397,45.8808)">
            <path d="M85.432,48.847L96.664,57.008L92.373,70.212L78.49,70.212L74.199,57.008L85.432,48.847Z" style="fill:none;stroke:black;stroke-width:4.37px;"/>
        </g>
    </g>
</svg>
