<?xml version="1.0" encoding="UTF-8" standalone="no"?>
<!DOCTYPE svg PUBLIC "-//W3C//DTD SVG 1.1//EN" "http://www.w3.org/Graphics/SVG/1.1/DTD/svg11.dtd">
<svg width="100%" height="100%" viewBox="0 0 100 100" version="1.1" xmlns="http://www.w3.org/2000/svg" xmlns:xlink="http://www.w3.org/1999/xlink" xml:space="preserve" xmlns:serif="http://www.serif.com/" style="fill-rule:evenodd;clip-rule:evenodd;stroke-linejoin:round;stroke-miterlimit:2;">
    <path d="M98.616,33.696C98.616,24.698 91.31,17.392 82.312,17.392L17.688,17.392C8.69,17.392 1.384,24.698 1.384,33.696L1.384,66.304C1.384,75.302 8.69,82.608 17.688,82.608L82.312,82.608C91.31,82.608 98.616,75.302 98.616,66.304L98.616,33.696ZM31.009,70.356C27.042,70.356 23.612,69.503 20.72,67.797C17.828,66.092 15.585,63.738 13.99,60.734C12.396,57.731 11.562,54.283 11.488,50.39C11.562,46.497 12.396,43.048 13.99,40.045C15.585,37.042 17.828,34.687 20.72,32.982C23.612,31.276 27.042,30.423 31.009,30.423C34.976,30.423 38.406,31.276 41.298,32.982C44.19,34.687 46.433,37.042 48.027,40.045C49.622,43.048 50.456,46.497 50.53,50.39C50.456,54.283 49.622,57.731 48.027,60.734C46.433,63.738 44.19,66.092 41.298,67.797C38.406,69.503 34.976,70.356 31.009,70.356ZM61.487,70.078C60.782,70.078 60.189,69.837 59.707,69.355C59.225,68.873 58.984,68.279 58.984,67.575L58.984,33.26C58.984,32.555 59.225,31.953 59.707,31.452C60.189,30.952 60.782,30.702 61.487,30.702C62.191,30.702 62.794,30.952 63.294,31.452C63.795,31.953 64.045,32.555 64.045,33.26L64.045,50.946L83.066,31.591C83.251,31.369 83.511,31.165 83.844,30.98C84.178,30.794 84.549,30.702 84.957,30.702C85.624,30.702 86.199,30.933 86.681,31.397C87.163,31.86 87.367,32.426 87.292,33.093C87.218,33.798 87.014,34.317 86.681,34.65L73.833,47.442L88.572,66.018C88.979,66.537 89.183,67.074 89.183,67.631C89.22,68.298 88.998,68.873 88.516,69.355C88.034,69.837 87.441,70.078 86.736,70.078C85.883,70.078 85.216,69.744 84.734,69.077L70.385,50.779L64.045,57.175L64.045,67.575C64.045,68.279 63.795,68.873 63.294,69.355C62.794,69.837 62.191,70.078 61.487,70.078ZM31.009,65.628C34.086,65.628 36.7,64.952 38.851,63.598C41.001,62.245 42.642,60.419 43.773,58.12C44.904,55.821 45.469,53.245 45.469,50.39C45.469,47.535 44.904,44.958 43.773,42.659C42.642,40.36 41.001,38.534 38.851,37.181C36.7,35.828 34.086,35.151 31.009,35.151C27.932,35.151 25.318,35.828 23.167,37.181C21.017,38.534 19.376,40.36 18.245,42.659C17.114,44.958 16.549,47.535 16.549,50.39C16.549,53.245 17.114,55.821 18.245,58.12C19.376,60.419 21.017,62.245 23.167,63.598C25.318,64.952 27.932,65.628 31.009,65.628Z"/>
</svg>
