<?xml version="1.0" encoding="UTF-8" standalone="no"?>
<!DOCTYPE svg PUBLIC "-//W3C//DTD SVG 1.1//EN" "http://www.w3.org/Graphics/SVG/1.1/DTD/svg11.dtd">
<svg width="100%" height="100%" viewBox="0 0 100 100" version="1.1" xmlns="http://www.w3.org/2000/svg" xmlns:xlink="http://www.w3.org/1999/xlink" xml:space="preserve" xmlns:serif="http://www.serif.com/" style="fill-rule:evenodd;clip-rule:evenodd;stroke-linejoin:round;stroke-miterlimit:2;">
    <g transform="matrix(1.11301,0,0,1.11301,-3.11932,-3.6684)">
        <path d="M85.054,38.411C88.292,32.071 78.102,19.909 72.542,15.331C58.017,3.369 48.357,5.108 36.493,9.223C21.787,14.324 9.728,37.089 9.776,50C9.823,62.968 19.267,82.278 25.239,85.704C48.038,98.779 69.337,80.042 70.723,77.989C76.326,69.69 72.938,58.851 68.761,52.821C61.333,42.099 64.093,40.857 65.295,38.483C67.948,33.243 82.085,44.226 85.054,38.411ZM41.715,69.65C45.552,69.65 48.667,72.766 48.667,76.603C48.667,80.439 45.552,83.555 41.715,83.555C37.878,83.555 34.763,80.439 34.763,76.603C34.763,72.766 37.878,69.65 41.715,69.65ZM27.81,49.161C31.647,49.161 34.763,52.276 34.763,56.113C34.763,59.95 31.647,63.065 27.81,63.065C23.974,63.065 20.858,59.95 20.858,56.113C20.858,52.276 23.974,49.161 27.81,49.161ZM58.745,44.609C60.857,44.609 62.571,46.449 62.571,48.715C62.571,50.981 60.857,52.821 58.745,52.821C56.634,52.821 54.92,50.981 54.92,48.715C54.92,46.449 56.634,44.609 58.745,44.609ZM35.669,26.025C39.506,26.025 42.621,29.14 42.621,32.977C42.621,36.814 39.506,39.929 35.669,39.929C31.832,39.929 28.717,36.814 28.717,32.977C28.717,29.14 31.832,26.025 35.669,26.025ZM55.619,12.121C59.456,12.121 62.571,15.236 62.571,19.073C62.571,22.91 59.456,26.025 55.619,26.025C51.782,26.025 48.667,22.91 48.667,19.073C48.667,15.236 51.782,12.121 55.619,12.121Z"/>
    </g>
</svg>
