<?xml version="1.0" encoding="UTF-8" standalone="no"?>
<!DOCTYPE svg PUBLIC "-//W3C//DTD SVG 1.1//EN" "http://www.w3.org/Graphics/SVG/1.1/DTD/svg11.dtd">
<svg width="100%" height="100%" viewBox="0 0 100 100" version="1.1" xmlns="http://www.w3.org/2000/svg" xmlns:xlink="http://www.w3.org/1999/xlink" xml:space="preserve" xmlns:serif="http://www.serif.com/" style="fill-rule:evenodd;clip-rule:evenodd;stroke-linejoin:round;stroke-miterlimit:2;">
    <g transform="matrix(0.15423,0,0,0.15423,0.639954,14.1696)">
        <path d="M321.1,128L376,219.4C396.474,255.069 406.717,260.212 448.5,248L559.069,215.439L559.069,382.439C559.069,404.439 544.069,423.639 522.669,429.039L335.5,476.2C325.3,478.8 314.6,478.8 304.5,476.2L121.322,432.003C99.922,426.503 84.922,407.303 84.922,385.303L84.922,218.303L191.6,248C233.348,261.341 247.472,252.484 264.1,219.4L318.9,128L321.1,128Z" style="fill-rule:nonzero;"/>
    </g>
    <g transform="matrix(0.15423,0,0,0.15423,0.639954,16.1696)">
        <path d="M58.9,42.1C61.9,36 68.5,32.5 75.2,33.4L320,64L564.8,33.4C571.5,32.6 578.1,36.1 581.1,42.1L610.998,128.213C619.998,146.113 610.398,167.813 591.198,173.313L439.6,217.3C425.7,221.3 410.8,215.4 403.4,203L320,64L236.6,203C229.2,215.4 214.3,221.3 200.4,217.3L45.997,173.303C26.697,167.803 17.197,146.103 26.197,128.203L58.9,42.1Z" style="fill-rule:nonzero;"/>
    </g>
    <g transform="matrix(1.242,6.72501e-17,-6.72501e-17,-0.692859,-11.6986,28.0077)">
        <path d="M49.677,7.709L80.171,13.627L49.497,23.082L19.758,13.637L49.677,7.709Z"/>
    </g>
</svg>
