<?xml version="1.0" encoding="UTF-8" standalone="no"?>
<!DOCTYPE svg PUBLIC "-//W3C//DTD SVG 1.1//EN" "http://www.w3.org/Graphics/SVG/1.1/DTD/svg11.dtd">
<svg width="100%" height="100%" viewBox="0 0 100 100" version="1.1" xmlns="http://www.w3.org/2000/svg" xmlns:xlink="http://www.w3.org/1999/xlink" xml:space="preserve" xmlns:serif="http://www.serif.com/" style="fill-rule:evenodd;clip-rule:evenodd;stroke-linejoin:round;stroke-miterlimit:2;">
    <g transform="matrix(1,0,0,1.0526,0,-4.89979)">
        <path d="M45.242,68.901C32.67,66.463 23.114,54.536 23.114,40.208L23.114,36.723L20.663,36.723L20.663,30.643L35.01,30.643L35.01,11.81L40.949,11.81L40.949,30.643L59.051,30.643L59.051,11.81L64.99,11.81L64.99,30.643L79.337,30.643L79.337,36.723L76.886,36.723L76.885,40.397C76.802,54.641 67.274,66.475 54.758,68.901L54.758,75.659L52.816,75.659L52.816,93.159L47.184,93.159L47.184,75.659L45.242,75.659L45.242,68.901Z"/>
    </g>
</svg>
