<?xml version="1.0" encoding="UTF-8" standalone="no"?>
<!DOCTYPE svg PUBLIC "-//W3C//DTD SVG 1.1//EN" "http://www.w3.org/Graphics/SVG/1.1/DTD/svg11.dtd">
<svg width="100%" height="100%" viewBox="0 0 100 100" version="1.1" xmlns="http://www.w3.org/2000/svg" xmlns:xlink="http://www.w3.org/1999/xlink" xml:space="preserve" xmlns:serif="http://www.serif.com/" style="fill-rule:evenodd;clip-rule:evenodd;stroke-linejoin:round;stroke-miterlimit:2;">
    <path d="M94.049,31.43C94.049,27.837 91.132,24.92 87.538,24.92L12.462,24.92C8.868,24.92 5.951,27.837 5.951,31.43L5.951,68.57C5.951,72.163 8.868,75.08 12.462,75.08L87.538,75.08C91.132,75.08 94.049,72.163 94.049,68.57L94.049,31.43ZM44.947,67.837C46.154,69.07 47.811,69.86 49.651,69.939C50.754,69.987 51.688,69.13 51.735,68.027C51.783,66.924 50.926,65.99 49.823,65.943C48.224,65.874 46.947,64.553 46.947,62.936L46.947,37.064C46.947,35.447 48.224,34.126 49.823,34.057C50.926,34.01 51.783,33.076 51.735,31.973C51.688,30.87 50.754,30.013 49.651,30.061C47.811,30.14 46.154,30.93 44.947,32.163C43.74,30.93 42.083,30.14 40.243,30.061C39.14,30.013 38.206,30.87 38.159,31.973C38.111,33.076 38.968,34.01 40.071,34.057C41.67,34.126 42.947,35.447 42.947,37.064C42.947,37.064 42.947,62.936 42.947,62.936C42.947,64.553 41.67,65.874 40.071,65.943C38.968,65.99 38.111,66.924 38.159,68.027C38.206,69.13 39.14,69.987 40.243,69.939C42.083,69.86 43.74,69.07 44.947,67.837ZM21.32,48.064L15.476,47.01C16.133,44.658 17.264,42.916 18.868,41.786C20.472,40.655 22.855,40.09 26.017,40.09C28.889,40.09 31.028,40.43 32.433,41.11C33.839,41.789 34.828,42.653 35.401,43.699C35.974,44.746 36.26,46.667 36.26,49.462L36.192,56.978C36.192,59.117 36.295,60.694 36.501,61.71C36.707,62.726 37.093,63.815 37.658,64.976L31.288,64.976C31.12,64.548 30.913,63.914 30.669,63.074C30.562,62.692 30.486,62.44 30.44,62.318C29.34,63.387 28.164,64.189 26.911,64.724C25.658,65.258 24.322,65.526 22.901,65.526C20.395,65.526 18.421,64.846 16.977,63.486C15.534,62.127 14.812,60.408 14.812,58.33C14.812,56.955 15.14,55.729 15.797,54.652C16.454,53.575 17.374,52.751 18.558,52.178C19.742,51.605 21.449,51.104 23.68,50.677C26.689,50.111 28.775,49.584 29.936,49.096L29.936,48.454C29.936,47.217 29.63,46.334 29.019,45.807C28.408,45.28 27.255,45.017 25.559,45.017C24.413,45.017 23.519,45.242 22.878,45.693C22.236,46.143 21.717,46.934 21.32,48.064ZM29.936,53.289C29.111,53.564 27.805,53.892 26.017,54.274C24.23,54.656 23.061,55.031 22.511,55.397C21.671,55.993 21.251,56.749 21.251,57.666C21.251,58.567 21.587,59.346 22.259,60.003C22.931,60.66 23.787,60.989 24.826,60.989C25.987,60.989 27.094,60.607 28.148,59.843C28.927,59.262 29.439,58.552 29.684,57.712C29.852,57.162 29.936,56.115 29.936,54.572L29.936,53.289Z"/>
</svg>
